<?xml version="1.0" encoding="UTF-8" standalone="no"?>
<!DOCTYPE svg PUBLIC "-//W3C//DTD SVG 1.1//EN"
 "http://www.w3.org/Graphics/SVG/1.1/DTD/svg11.dtd">
<!-- Generated by graphviz version 2.40.1 (20161225.0304)
 -->
<!-- Title: dependencies Pages: 1 -->
<svg width="504pt" height="284pt"
 viewBox="0.00 0.00 504.00 284.00" xmlns="http://www.w3.org/2000/svg" xmlns:xlink="http://www.w3.org/1999/xlink">
<g id="graph0" class="graph" transform="scale(1 1) rotate(0) translate(4 280)">
<title>dependencies</title>
<polygon fill="#ffffff" stroke="transparent" points="-4,4 -4,-280 500,-280 500,4 -4,4"/>
<text text-anchor="start" x="227.0091" y="-42.4" font-family="sans-serif" font-weight="bold" font-size="14.00" fill="#000000">Legend</text>
<polygon fill="#ffffb3" stroke="transparent" points="14,-10 14,-30 34,-30 34,-10 14,-10"/>
<text text-anchor="start" x="37.629" y="-15.4" font-family="sans-serif" font-size="14.00" fill="#000000"> &#160;Declarations</text>
<polygon fill="#8dd3c7" stroke="transparent" points="127,-10 127,-30 147,-30 147,-10 127,-10"/>
<text text-anchor="start" x="150.7251" y="-15.4" font-family="sans-serif" font-size="14.00" fill="#000000"> &#160;Module</text>
<polygon fill="#80b1d3" stroke="transparent" points="213,-10 213,-30 233,-30 233,-10 213,-10"/>
<text text-anchor="start" x="236.7812" y="-15.4" font-family="sans-serif" font-size="14.00" fill="#000000"> &#160;Bootstrap</text>
<polygon fill="#fdb462" stroke="transparent" points="310,-10 310,-30 330,-30 330,-10 310,-10"/>
<text text-anchor="start" x="333.6732" y="-15.4" font-family="sans-serif" font-size="14.00" fill="#000000"> &#160;Providers</text>
<polygon fill="#fb8072" stroke="transparent" points="406,-10 406,-30 426,-30 426,-10 406,-10"/>
<text text-anchor="start" x="429.7258" y="-15.4" font-family="sans-serif" font-size="14.00" fill="#000000"> &#160;Exports</text>
<g id="clust1" class="cluster">
<title>cluster_SampleModule</title>
<polygon fill="none" stroke="#000000" stroke-dasharray="1,5" points="103,-70 103,-268 393,-268 393,-70 103,-70"/>
</g>
<g id="clust2" class="cluster">
<title>cluster_SampleModule_declarations</title>
<polygon fill="none" stroke="#000000" points="114,-78 114,-130 382,-130 382,-78 114,-78"/>
</g>
<g id="clust6" class="cluster">
<title>cluster_SampleModule_exports</title>
<polygon fill="none" stroke="#000000" points="111,-208 111,-260 385,-260 385,-208 111,-208"/>
</g>
<!-- SampleComponent -->
<g id="node1" class="node">
<title>SampleComponent</title>
<polygon fill="#ffffb3" stroke="#000000" points="373.8258,-122 250.1742,-122 250.1742,-86 373.8258,-86 373.8258,-122"/>
<text text-anchor="middle" x="312" y="-99.8" font-family="Times,serif" font-size="14.00" fill="#000000">SampleComponent</text>
</g>
<!-- SampleModule -->
<g id="node3" class="node">
<title>SampleModule</title>
<polygon fill="#8dd3c7" stroke="#000000" points="228.5438,-187 225.5438,-191 204.5438,-191 201.5438,-187 127.4562,-187 127.4562,-151 228.5438,-151 228.5438,-187"/>
<text text-anchor="middle" x="178" y="-164.8" font-family="Times,serif" font-size="14.00" fill="#000000">SampleModule</text>
</g>
<!-- SampleComponent&#45;&gt;SampleModule -->
<g id="edge1" class="edge">
<title>SampleComponent&#45;&gt;SampleModule</title>
<path fill="none" stroke="#000000" d="M332.6376,-122.0225C332.6376,-139.3734 332.6376,-163 332.6376,-163 332.6376,-163 238.6341,-163 238.6341,-163"/>
<polygon fill="#000000" stroke="#000000" points="238.6342,-159.5001 228.6341,-163 238.6341,-166.5001 238.6342,-159.5001"/>
</g>
<!-- SampleDirective -->
<g id="node2" class="node">
<title>SampleDirective</title>
<polygon fill="#ffffb3" stroke="#000000" points="232.0758,-122 121.9242,-122 121.9242,-86 232.0758,-86 232.0758,-122"/>
<text text-anchor="middle" x="177" y="-99.8" font-family="Times,serif" font-size="14.00" fill="#000000">SampleDirective</text>
</g>
<!-- SampleDirective&#45;&gt;SampleModule -->
<g id="edge2" class="edge">
<title>SampleDirective&#45;&gt;SampleModule</title>
<path fill="none" stroke="#000000" d="M178,-122.1061C178,-122.1061 178,-140.991 178,-140.991"/>
<polygon fill="#000000" stroke="#000000" points="174.5001,-140.9909 178,-150.991 181.5001,-140.991 174.5001,-140.9909"/>
</g>
<!-- SampleComponent  -->
<g id="node4" class="node">
<title>SampleComponent </title>
<polygon fill="#fb8072" stroke="#000000" points="377.3255,-252 250.6745,-252 250.6745,-216 377.3255,-216 377.3255,-252"/>
<text text-anchor="middle" x="314" y="-229.8" font-family="Times,serif" font-size="14.00" fill="#000000">SampleComponent </text>
</g>
<!-- SampleModule&#45;&gt;SampleComponent  -->
<g id="edge3" class="edge">
<title>SampleModule&#45;&gt;SampleComponent </title>
<path fill="none" stroke="#000000" stroke-dasharray="5,2" d="M228.8248,-175C259.0747,-175 291.6124,-175 291.6124,-175 291.6124,-175 291.6124,-205.9775 291.6124,-205.9775"/>
<polygon fill="#000000" stroke="#000000" points="288.1125,-205.9774 291.6124,-215.9775 295.1125,-205.9775 288.1125,-205.9774"/>
</g>
<!-- SampleDirective  -->
<g id="node5" class="node">
<title>SampleDirective </title>
<polygon fill="#fb8072" stroke="#000000" points="232.5766,-252 119.4234,-252 119.4234,-216 232.5766,-216 232.5766,-252"/>
<text text-anchor="middle" x="176" y="-229.8" font-family="Times,serif" font-size="14.00" fill="#000000">SampleDirective </text>
</g>
<!-- SampleModule&#45;&gt;SampleDirective  -->
<g id="edge4" class="edge">
<title>SampleModule&#45;&gt;SampleDirective </title>
<path fill="none" stroke="#000000" stroke-dasharray="5,2" d="M178,-187.1061C178,-187.1061 178,-205.991 178,-205.991"/>
<polygon fill="#000000" stroke="#000000" points="174.5001,-205.9909 178,-215.991 181.5001,-205.991 174.5001,-205.9909"/>
</g>
</g>
</svg>
