<?xml version="1.0" encoding="UTF-8" standalone="no"?>
<!DOCTYPE svg PUBLIC "-//W3C//DTD SVG 1.1//EN"
 "http://www.w3.org/Graphics/SVG/1.1/DTD/svg11.dtd">
<!-- Generated by graphviz version 2.40.1 (20161225.0304)
 -->
<!-- Title: dependencies Pages: 1 -->
<svg width="862pt" height="290pt"
 viewBox="0.00 0.00 862.00 290.00" xmlns="http://www.w3.org/2000/svg" xmlns:xlink="http://www.w3.org/1999/xlink">
<g id="graph0" class="graph" transform="scale(1 1) rotate(0) translate(4 286)">
<title>dependencies</title>
<polygon fill="#ffffff" stroke="transparent" points="-4,4 -4,-286 858,-286 858,4 -4,4"/>
<text text-anchor="start" x="406.0091" y="-42.4" font-family="sans-serif" font-weight="bold" font-size="14.00" fill="#000000">Legend</text>
<polygon fill="#ffffb3" stroke="transparent" points="193,-10 193,-30 213,-30 213,-10 193,-10"/>
<text text-anchor="start" x="216.629" y="-15.4" font-family="sans-serif" font-size="14.00" fill="#000000"> &#160;Declarations</text>
<polygon fill="#8dd3c7" stroke="transparent" points="306,-10 306,-30 326,-30 326,-10 306,-10"/>
<text text-anchor="start" x="329.7251" y="-15.4" font-family="sans-serif" font-size="14.00" fill="#000000"> &#160;Module</text>
<polygon fill="#80b1d3" stroke="transparent" points="392,-10 392,-30 412,-30 412,-10 392,-10"/>
<text text-anchor="start" x="415.7812" y="-15.4" font-family="sans-serif" font-size="14.00" fill="#000000"> &#160;Bootstrap</text>
<polygon fill="#fdb462" stroke="transparent" points="489,-10 489,-30 509,-30 509,-10 489,-10"/>
<text text-anchor="start" x="512.6732" y="-15.4" font-family="sans-serif" font-size="14.00" fill="#000000"> &#160;Providers</text>
<polygon fill="#fb8072" stroke="transparent" points="585,-10 585,-30 605,-30 605,-10 585,-10"/>
<text text-anchor="start" x="608.7258" y="-15.4" font-family="sans-serif" font-size="14.00" fill="#000000"> &#160;Exports</text>
<g id="clust1" class="cluster">
<title>cluster_AppModule</title>
<polygon fill="none" stroke="#000000" stroke-dasharray="1,5" points="8,-70 8,-274 272,-274 272,-70 8,-70"/>
</g>
<g id="clust2" class="cluster">
<title>cluster_AppModule_declarations</title>
<polygon fill="none" stroke="#000000" points="16,-78 16,-130 138,-130 138,-78 16,-78"/>
</g>
<g id="clust4" class="cluster">
<title>cluster_AppModule_imports</title>
<polygon fill="none" stroke="#000000" points="146,-78 146,-130 264,-130 264,-78 146,-78"/>
</g>
<g id="clust6" class="cluster">
<title>cluster_AppModule_bootstrap</title>
<polygon fill="none" stroke="#000000" points="78,-214 78,-266 202,-266 202,-214 78,-214"/>
</g>
<g id="clust8" class="cluster">
<title>cluster_SampleModule</title>
<polygon fill="none" stroke="#000000" stroke-dasharray="1,5" points="280,-138 280,-206 846,-206 846,-138 280,-138"/>
</g>
<g id="clust9" class="cluster">
<title>cluster_SampleModule_declarations</title>
<polygon fill="none" stroke="#000000" points="570,-146 570,-198 838,-198 838,-146 570,-146"/>
</g>
<g id="clust13" class="cluster">
<title>cluster_SampleModule_exports</title>
<polygon fill="none" stroke="#000000" points="288,-146 288,-198 562,-198 562,-146 288,-146"/>
</g>
<!-- AppComponent -->
<g id="node1" class="node">
<title>AppComponent</title>
<polygon fill="#ffffb3" stroke="#000000" points="129.9399,-122 24.0601,-122 24.0601,-86 129.9399,-86 129.9399,-122"/>
<text text-anchor="middle" x="77" y="-99.8" font-family="Times,serif" font-size="14.00" fill="#000000">AppComponent</text>
</g>
<!-- AppModule -->
<g id="node2" class="node">
<title>AppModule</title>
<polygon fill="#8dd3c7" stroke="#000000" points="181.6571,-190 178.6571,-194 157.6571,-194 154.6571,-190 98.3429,-190 98.3429,-154 181.6571,-154 181.6571,-190"/>
<text text-anchor="middle" x="140" y="-167.8" font-family="Times,serif" font-size="14.00" fill="#000000">AppModule</text>
</g>
<!-- AppComponent&#45;&gt;AppModule -->
<g id="edge1" class="edge">
<title>AppComponent&#45;&gt;AppModule</title>
<path fill="none" stroke="#000000" d="M113.9457,-122.2228C113.9457,-122.2228 113.9457,-143.7269 113.9457,-143.7269"/>
<polygon fill="#000000" stroke="#000000" points="110.4457,-143.7269 113.9457,-153.7269 117.4457,-143.727 110.4457,-143.7269"/>
</g>
<!-- AppComponent  -->
<g id="node4" class="node">
<title>AppComponent </title>
<polygon fill="#80b1d3" stroke="#000000" points="194.439,-258 85.561,-258 85.561,-222 194.439,-222 194.439,-258"/>
<text text-anchor="middle" x="140" y="-235.8" font-family="Times,serif" font-size="14.00" fill="#000000">AppComponent </text>
</g>
<!-- AppModule&#45;&gt;AppComponent  -->
<g id="edge3" class="edge">
<title>AppModule&#45;&gt;AppComponent </title>
<path fill="none" stroke="#000000" stroke-dasharray="1,5" d="M140,-190.2228C140,-190.2228 140,-211.7269 140,-211.7269"/>
<polygon fill="#000000" stroke="#000000" points="136.5001,-211.7269 140,-221.7269 143.5001,-211.727 136.5001,-211.7269"/>
</g>
<!-- SampleModule -->
<g id="node3" class="node">
<title>SampleModule</title>
<polygon fill="#8dd3c7" stroke="#000000" points="255.5438,-122 252.5438,-126 231.5438,-126 228.5438,-122 154.4562,-122 154.4562,-86 255.5438,-86 255.5438,-122"/>
<text text-anchor="middle" x="205" y="-99.8" font-family="Times,serif" font-size="14.00" fill="#000000">SampleModule</text>
</g>
<!-- SampleModule&#45;&gt;AppModule -->
<g id="edge2" class="edge">
<title>SampleModule&#45;&gt;AppModule</title>
<path fill="none" stroke="#000000" d="M168.0284,-122.2228C168.0284,-122.2228 168.0284,-143.7269 168.0284,-143.7269"/>
<polygon fill="#000000" stroke="#000000" points="164.5285,-143.7269 168.0284,-153.7269 171.5285,-143.727 164.5285,-143.7269"/>
</g>
<!-- SampleComponent  -->
<g id="node7" class="node">
<title>SampleComponent </title>
<polygon fill="#fb8072" stroke="#000000" points="554.3255,-190 427.6745,-190 427.6745,-154 554.3255,-154 554.3255,-190"/>
<text text-anchor="middle" x="491" y="-167.8" font-family="Times,serif" font-size="14.00" fill="#000000">SampleComponent </text>
</g>
<!-- SampleModule&#45;&gt;SampleComponent  -->
<g id="edge6" class="edge">
<title>SampleModule&#45;&gt;SampleComponent </title>
<path fill="none" stroke="#000000" stroke-dasharray="5,2" d="M255.8015,-113C337.9865,-113 491,-113 491,-113 491,-113 491,-143.9775 491,-143.9775"/>
<polygon fill="#000000" stroke="#000000" points="487.5001,-143.9774 491,-153.9775 494.5001,-143.9775 487.5001,-143.9774"/>
</g>
<!-- SampleDirective  -->
<g id="node8" class="node">
<title>SampleDirective </title>
<polygon fill="#fb8072" stroke="#000000" points="409.5766,-190 296.4234,-190 296.4234,-154 409.5766,-154 409.5766,-190"/>
<text text-anchor="middle" x="353" y="-167.8" font-family="Times,serif" font-size="14.00" fill="#000000">SampleDirective </text>
</g>
<!-- SampleModule&#45;&gt;SampleDirective  -->
<g id="edge7" class="edge">
<title>SampleModule&#45;&gt;SampleDirective </title>
<path fill="none" stroke="#000000" stroke-dasharray="5,2" d="M225.1205,-122.2228C225.1205,-142.3652 225.1205,-172 225.1205,-172 225.1205,-172 286.1655,-172 286.1655,-172"/>
<polygon fill="#000000" stroke="#000000" points="286.1655,-175.5001 296.1655,-172 286.1654,-168.5001 286.1655,-175.5001"/>
</g>
<!-- SampleComponent -->
<g id="node5" class="node">
<title>SampleComponent</title>
<polygon fill="#ffffb3" stroke="#000000" points="829.8258,-190 706.1742,-190 706.1742,-154 829.8258,-154 829.8258,-190"/>
<text text-anchor="middle" x="768" y="-167.8" font-family="Times,serif" font-size="14.00" fill="#000000">SampleComponent</text>
</g>
<!-- SampleComponent&#45;&gt;SampleModule -->
<g id="edge4" class="edge">
<title>SampleComponent&#45;&gt;SampleModule</title>
<path fill="none" stroke="#000000" d="M768,-153.7521C768,-130.9821 768,-95 768,-95 768,-95 265.9555,-95 265.9555,-95"/>
<polygon fill="#000000" stroke="#000000" points="265.9555,-91.5001 255.9555,-95 265.9554,-98.5001 265.9555,-91.5001"/>
</g>
<!-- SampleDirective -->
<g id="node6" class="node">
<title>SampleDirective</title>
<polygon fill="#ffffb3" stroke="#000000" points="688.0758,-190 577.9242,-190 577.9242,-154 688.0758,-154 688.0758,-190"/>
<text text-anchor="middle" x="633" y="-167.8" font-family="Times,serif" font-size="14.00" fill="#000000">SampleDirective</text>
</g>
<!-- SampleDirective&#45;&gt;SampleModule -->
<g id="edge5" class="edge">
<title>SampleDirective&#45;&gt;SampleModule</title>
<path fill="none" stroke="#000000" d="M633,-153.7772C633,-133.6348 633,-104 633,-104 633,-104 265.7779,-104 265.7779,-104"/>
<polygon fill="#000000" stroke="#000000" points="265.778,-100.5001 255.7779,-104 265.7779,-107.5001 265.778,-100.5001"/>
</g>
</g>
</svg>
